<?xml version="1.0" encoding="utf-8"?>
<!-- Generator: Adobe Illustrator 16.0.3, SVG Export Plug-In . SVG Version: 6.00 Build 0)  -->
<!DOCTYPE svg PUBLIC "-//W3C//DTD SVG 1.1//EN" "http://www.w3.org/Graphics/SVG/1.1/DTD/svg11.dtd">
<svg version="1.1" id="Шар_1" xmlns="http://www.w3.org/2000/svg" xmlns:xlink="http://www.w3.org/1999/xlink" x="0px" y="0px"
	 width="149px" height="22px" viewBox="0 0 149 22" enable-background="new 0 0 149 22" xml:space="preserve">
<path fill="none" d="M144.291,13.563c0.537-0.298,1.018-0.66,1.445-1.087c0.426-0.427,0.789-0.909,1.088-1.445
	c0.297-0.537,0.525-1.107,0.686-1.713c0.158-0.605,0.238-1.236,0.238-1.892c0-0.874-0.174-1.737-0.521-2.592
	c-0.348-0.854-0.83-1.619-1.445-2.294c-0.615-0.675-1.346-1.221-2.189-1.639c-0.844-0.417-1.764-0.626-2.756-0.626h-23.027V0.28
	c-1.451,0.025-2.793,0.315-4.025,0.874c-1.291,0.586-2.408,1.371-3.352,2.354c-0.945,0.983-1.68,2.121-2.205,3.412
	c-0.527,1.291-0.789,2.632-0.789,4.022c0,1.371,0.254,2.702,0.76,3.992c0.355,0.907,0.816,1.739,1.373,2.504h-5.873
	c0.535-0.728,0.988-1.519,1.342-2.384c0.525-1.292,0.789-2.632,0.789-4.022c0-1.331-0.248-2.642-0.744-3.933
	c-0.498-1.291-1.203-2.443-2.115-3.456c-0.914-1.013-2.018-1.828-3.309-2.444c-1.291-0.615-2.721-0.923-4.289-0.923
	c-1.529,0-2.941,0.293-4.232,0.879C89.85,1.74,88.73,2.525,87.787,3.508c-0.941,0.983-1.678,2.121-2.203,3.412
	c-0.277,0.677-0.479,1.369-0.609,2.074H83c-0.111-0.783-0.291-1.54-0.545-2.269c-0.447-1.282-1.113-2.398-1.996-3.352
	c-0.885-0.954-1.98-1.708-3.291-2.265c-1.313-0.555-2.842-0.834-4.59-0.834H37.511V11.09c0,0.775-0.075,1.534-0.223,2.279
	c-0.149,0.745-0.402,1.405-0.76,1.981c-0.357,0.576-0.824,1.039-1.4,1.386c-0.575,0.348-1.281,0.521-2.115,0.521
	c-0.834,0-1.535-0.168-2.101-0.507c-0.566-0.337-1.027-0.793-1.386-1.37c-0.357-0.576-0.616-1.23-0.775-1.966
	c-0.158-0.734-0.238-1.509-0.238-2.324V0.274H10.578v0.002C9.071,0.284,7.681,0.576,6.407,1.154C5.116,1.74,3.998,2.524,3.055,3.508
	C2.111,4.491,1.376,5.628,0.85,6.919c-0.527,1.291-0.79,2.632-0.79,4.022c0,1.371,0.253,2.701,0.76,3.991
	c0.506,1.293,1.217,2.44,2.13,3.442c0.914,1.003,2.017,1.812,3.308,2.428c1.291,0.616,2.721,0.923,4.291,0.923
	c1.529,0,2.939-0.298,4.23-0.893c1.291-0.596,2.403-1.386,3.337-2.369c0.933-0.983,1.663-2.12,2.189-3.411s0.791-2.632,0.791-4.022
	c0-1.331-0.249-2.642-0.746-3.933c-0.352-0.915-0.814-1.757-1.375-2.532h4.652v6.525c0,1.39,0.174,2.721,0.522,3.993
	c0.348,1.271,0.894,2.389,1.638,3.351c0.746,0.964,1.714,1.734,2.906,2.31c1.192,0.577,2.631,0.865,4.32,0.865
	c1.628,0,3.034-0.274,4.216-0.82c1.182-0.546,2.155-1.297,2.919-2.249c0.765-0.954,1.331-2.066,1.699-3.338
	c0.367-1.271,0.551-2.642,0.551-4.111V4.565h8.581v16.862h4.886V4.565h8.819v16.862h7.895c1.59,0,3.034-0.252,4.334-0.759
	c1.303-0.507,2.414-1.222,3.338-2.145c0.924-0.924,1.635-2.036,2.131-3.338c0.229-0.601,0.402-1.235,0.527-1.902h2.143
	c0.123,0.557,0.291,1.107,0.504,1.649c0.506,1.292,1.215,2.439,2.129,3.441c0.914,1.005,2.016,1.813,3.309,2.429
	c1.242,0.593,2.617,0.897,4.121,0.92v0.003h22.84v-0.001c1.52-0.002,2.918-0.301,4.201-0.893c1.291-0.595,2.404-1.385,3.338-2.368
	s1.662-2.12,2.189-3.411c0.525-1.292,0.789-2.632,0.789-4.022c0-1.331-0.248-2.642-0.744-3.933
	c-0.354-0.915-0.816-1.757-1.377-2.533h4.951v16.862h4.887v-6.822h3.188l4.053,6.822h5.512L144.291,13.563z M15.777,13.279
	c-0.229,0.766-0.571,1.451-1.028,2.056c-0.458,0.607-1.033,1.099-1.729,1.475c-0.695,0.379-1.509,0.567-2.443,0.567
	c-0.894,0-1.688-0.179-2.383-0.537c-0.696-0.356-1.276-0.834-1.743-1.43c-0.467-0.596-0.819-1.276-1.058-2.041
	c-0.238-0.764-0.357-1.554-0.357-2.368c0-0.794,0.115-1.574,0.343-2.339c0.228-0.764,0.576-1.445,1.043-2.041
	C6.888,6.025,7.464,5.544,8.15,5.176c0.685-0.367,1.494-0.551,2.428-0.551c0.894,0,1.684,0.174,2.369,0.521
	c0.685,0.347,1.266,0.814,1.743,1.4c0.477,0.586,0.834,1.262,1.073,2.026s0.357,1.554,0.357,2.369
	C16.119,11.736,16.005,12.516,15.777,13.279z M77.779,13.339c-0.25,0.765-0.607,1.431-1.074,1.996
	c-0.467,0.567-1.049,1.009-1.745,1.327c-0.694,0.316-1.488,0.477-2.383,0.477H69.57V4.565h3.008c0.875,0,1.658,0.149,2.354,0.447
	c0.696,0.298,1.282,0.726,1.758,1.281c0.479,0.556,0.84,1.217,1.09,1.981c0.074,0.231,0.133,0.474,0.186,0.72h-1.355v4.29h1.184
	C77.787,13.303,77.783,13.322,77.779,13.339z M100.51,13.16c-0.229,0.766-0.572,1.451-1.027,2.056
	c-0.457,0.606-1.033,1.099-1.729,1.476s-1.51,0.565-2.443,0.565c-0.893,0-1.688-0.179-2.383-0.536s-1.277-0.834-1.742-1.43
	c-0.461-0.587-0.809-1.256-1.047-2.007h1.301v-4.29h-1.445c0.037-0.151,0.072-0.302,0.117-0.451
	c0.229-0.764,0.576-1.445,1.043-2.041c0.467-0.596,1.043-1.077,1.729-1.445c0.686-0.367,1.494-0.551,2.428-0.551
	c0.895,0,1.684,0.174,2.369,0.521c0.684,0.348,1.266,0.814,1.744,1.4c0.475,0.586,0.832,1.262,1.072,2.026
	c0.236,0.765,0.355,1.554,0.355,2.369C100.852,11.617,100.736,12.396,100.51,13.16z M123.154,13.16
	c-0.23,0.766-0.572,1.451-1.029,2.056c-0.457,0.606-1.033,1.099-1.729,1.476s-1.51,0.565-2.443,0.565
	c-0.893,0-1.688-0.179-2.383-0.536s-1.277-0.834-1.742-1.43c-0.469-0.596-0.82-1.276-1.059-2.041s-0.357-1.554-0.357-2.369
	c0-0.794,0.115-1.574,0.342-2.338c0.229-0.764,0.576-1.445,1.045-2.041c0.465-0.596,1.041-1.077,1.727-1.445
	c0.686-0.367,1.494-0.551,2.428-0.551c0.895,0,1.684,0.174,2.369,0.521c0.686,0.348,1.268,0.814,1.744,1.4
	c0.477,0.586,0.834,1.262,1.072,2.026c0.238,0.765,0.357,1.554,0.357,2.369C123.496,11.617,123.381,12.396,123.154,13.16z
	 M142.146,9.526c-0.418,0.546-0.914,0.819-1.49,0.819h-4.469v-5.78h4.32c0.557,0,1.072,0.258,1.549,0.774s0.715,1.212,0.715,2.085
	C142.771,8.28,142.563,8.98,142.146,9.526z"/>
</svg>
