<?xml version="1.0" encoding="utf-8"?>
<!-- Generator: Adobe Illustrator 15.0.0, SVG Export Plug-In  -->
<!DOCTYPE svg PUBLIC "-//W3C//DTD SVG 1.1//EN" "http://www.w3.org/Graphics/SVG/1.1/DTD/svg11.dtd" [
	<!ENTITY ns_flows "http://ns.adobe.com/Flows/1.0/">
]>
<svg version="1.1"
	 xmlns="http://www.w3.org/2000/svg" xmlns:xlink="http://www.w3.org/1999/xlink" xmlns:a="http://ns.adobe.com/AdobeSVGViewerExtensions/3.0/"
	 x="0px" y="0px" width="30px" height="38px" viewBox="0 0 30 38" enable-background="new 0 0 30 38" xml:space="preserve">
<defs>
</defs>
<g>
	<g>
		<path fill-rule="evenodd" clip-rule="evenodd" fill="#FFFFFF" d="M21.472,5.542c5.73,2.974,7.748,9.667,8.457,13.768
			c1.452-6.578-1.287-13.643-7.194-17.194C15.486-2.24,6.218,0.345,2.033,7.892c-4.185,7.547-1.701,17.196,5.547,21.554
			c6.398,3.846,14.364,2.276,19.024-3.333c0.914-4.482,1.401-13.351-7.638-17.312c-7.787-3.412-10.744,2.234-11.534,3.7
			c-1.049,1.945-2.316,6.44,3.651,11.613c3.387,2.935,7.017,0.151,8.911-3.175c1.263-2.218-0.849-4.469-3.497-5.005
			c-3.866-0.782-1.34,5.533-1.34,5.533s-6.314,0-4.176-5.441c0.878-2.232,2.123-4.473,6.717-3.98
			c2.512,0.27,7.855,4.435,5.161,11.728c-1.793,4.851-8.965,5.272-14.017,1.483c-4.153-3.115-6.73-9.991-3.789-15.156
			C6.948,6.774,13.603,1.458,21.472,5.542z M6.317,31.571c-1.113-0.605-1.263-2.525-1.263-2.525l-3.451,4.999
			c-0.697,1.225-0.283,2.791,0.925,3.498s2.753,0.287,3.45-0.938l2.864-5.034C8.843,31.571,7.376,32.191,6.317,31.571z"/>
	</g>
</g>
</svg>
