<?xml version="1.0" encoding="utf-8"?>
<!-- Generator: Adobe Illustrator 15.0.0, SVG Export Plug-In  -->
<!DOCTYPE svg PUBLIC "-//W3C//DTD SVG 1.1//EN" "http://www.w3.org/Graphics/SVG/1.1/DTD/svg11.dtd" [
	<!ENTITY ns_flows "http://ns.adobe.com/Flows/1.0/">
]>
<svg version="1.1"
	 xmlns="http://www.w3.org/2000/svg" xmlns:xlink="http://www.w3.org/1999/xlink" xmlns:a="http://ns.adobe.com/AdobeSVGViewerExtensions/3.0/"
	 x="0px" y="0px" width="12px" height="20px" viewBox="-0.158 0 12 20" enable-background="new -0.158 0 12 20"
	 xml:space="preserve">
<defs>
</defs>
<path fill="#2063AD" d="M3.605,10.063c2.542,2.542,5.042,5.04,7.538,7.538c0.721,0.719,0.721,0.844,0.014,1.551
	c-1.129,1.135-1.129,1.134-2.276-0.017c-2.801-2.802-5.603-5.603-8.403-8.405c-0.635-0.632-0.635-0.774-0.002-1.407
	c2.95-2.955,5.903-5.908,8.857-8.86c0.623-0.623,0.765-0.617,1.408,0.021c1.188,1.18,1.188,1.176,0,2.369
	c-2.252,2.261-4.5,4.522-6.75,6.788C3.872,9.76,3.763,9.89,3.605,10.063z"/>
</svg>
