<?xml version="1.0" encoding="utf-8"?>
<!-- Generator: Adobe Illustrator 15.0.0, SVG Export Plug-In  -->
<!DOCTYPE svg PUBLIC "-//W3C//DTD SVG 1.1//EN" "http://www.w3.org/Graphics/SVG/1.1/DTD/svg11.dtd" [
	<!ENTITY ns_flows "http://ns.adobe.com/Flows/1.0/">
]>
<svg version="1.1"
	 xmlns="http://www.w3.org/2000/svg" xmlns:xlink="http://www.w3.org/1999/xlink" xmlns:a="http://ns.adobe.com/AdobeSVGViewerExtensions/3.0/"
	 x="0px" y="0px" width="64px" height="64px" viewBox="-9.868 -0.202 64 64" enable-background="new -9.868 -0.202 64 64"
	 xml:space="preserve">
<defs>
</defs>
<path fill="#4C626F" d="M9.968,0h23.924v63.798H9.968V0z"/>
<path fill="#E4E6E6" d="M21.931,9.968c12.111,0,21.93,9.818,21.93,21.93c0,12.114-9.818,21.931-21.93,21.931
	C9.818,53.829,0,44.013,0,31.898C0,19.789,9.818,9.968,21.931,9.968z"/>
<path fill="#4C626F" d="M29.905,29.905h-5.981v-5.98c0-1.1-0.891-1.994-1.993-1.994s-1.994,0.894-1.994,1.994v7.974
	c0,1.103,0.892,1.994,1.994,1.994h7.975c1.103,0,1.994-0.892,1.994-1.994C31.899,30.799,31.008,29.905,29.905,29.905z"/>
<path fill="#F3B45A" d="M21.931,9.968C9.818,9.968,0,19.789,0,31.898c0,12.114,9.818,21.931,21.931,21.931
	c12.111,0,21.93-9.816,21.93-21.931C43.86,19.789,34.042,9.968,21.931,9.968z M21.931,48.845c-9.347,0-16.947-7.6-16.947-16.946
	c0-9.346,7.6-16.946,16.947-16.946c9.345,0,16.946,7.602,16.946,16.946C38.877,41.245,31.275,48.845,21.931,48.845z"/>
</svg>
